<?xml version="1.0" encoding="utf-8"?>
<!-- Generator: Adobe Illustrator 25.2.1, SVG Export Plug-In . SVG Version: 6.00 Build 0)  -->
<svg version="1.1" id="Layer_1" xmlns="http://www.w3.org/2000/svg" xmlns:xlink="http://www.w3.org/1999/xlink" x="0px" y="0px"
	 viewBox="0 0 66.8 66.8" style="enable-background:new 0 0 66.8 66.8;" xml:space="preserve">
<path d="M5,3.7c-2.2,0.9-2.1,3,0.6,15.8c1.9,8.7,2.8,11.8,4,13.3c2.1,2.4,4,1.3,6.6-3.8l1.7-3.4l17.8,17.8
	c9.8,9.8,18.5,18.3,19.4,18.8c3.2,2.1,6,1.1,7.7-2.7c0.8-1.7,0.8-1.8,0.2-3.5c-0.4-1.1-1.6-2.6-3.4-4.2
	c-4.8-4.5-33.6-33.3-33.6-33.6c0-0.2,1.4-1.1,3.2-2c3.2-1.7,5.3-3.4,5.3-4.3c0-1.1-1.7-2.5-4.2-3.4c-3.1-1-14.6-3.9-17.7-4.4
	C8.9,3.5,5.9,3.3,5,3.7z"/>
</svg>
