<?xml version="1.0" encoding="utf-8"?>
<!-- Generator: Adobe Illustrator 25.2.1, SVG Export Plug-In . SVG Version: 6.00 Build 0)  -->
<svg version="1.1" id="Layer_1" xmlns="http://www.w3.org/2000/svg" xmlns:xlink="http://www.w3.org/1999/xlink" x="0px" y="0px"
	 viewBox="0 0 66.8 66.8" style="enable-background:new 0 0 66.8 66.8;" xml:space="preserve">
<g>
	<path d="M19.5,4.4c-9.4,3.2-15.2,11-16,21.4c-0.4,5.6,1.1,10,4.8,14.7c6.6,8.2,18.3,10.9,27.8,6.5l2.7-1.2l0.6,1
		c1.6,2.4,5.9,7.4,9.9,11.5c3.5,3.6,4.8,4.6,6.2,5c3,0.8,5.9-0.6,7.5-3.6c0.7-1.4,0.5-4.7-0.3-6.1C61.5,51.7,49,40,47.5,39.2
		c-0.7-0.4-1.3-0.7-1.4-0.7c0,0,0.4-1.1,0.9-2.3c2.9-6.3,3.1-13.6,0.5-19.2c-2.7-6-9-11.2-15.4-12.9C28.8,3.1,22.7,3.3,19.5,4.4z
		 M32.4,11.3c4.3,2.1,7.6,6.2,8.9,11.2c0.9,3.6,0.6,6.7-1,10c-1.8,3.9-3.8,5.8-7.5,7.7c-2.9,1.4-3.4,1.6-6.7,1.6s-3.8-0.1-6.7-1.6
		c-3.6-1.8-5.9-4.1-7.7-7.7c-1-2-1.1-2.8-1.2-6.3c0-3.4,0.2-4.2,1.1-6.3c1.9-4.1,5.9-7.7,10.2-9.3C24.3,9.8,30,10.1,32.4,11.3z"/>
	<path d="M24.6,15.8c-1,0.6-1.4,2.2-1.4,4.8v2.7l-2.9,0.2c-3.2,0.2-4.2,0.8-4.2,2.7c0,1.7,1.1,2.2,4.3,2.2h2.8l0.3,3.4
		c0.3,3.5,1.1,4.9,2.6,4.9c1.5,0,2.2-1.4,2.4-4.9l0.2-3.4h3c3.4,0,4.3-0.5,4.3-2.4s-1.1-2.5-4.4-2.5h-2.9l-0.3-1.3
		c-0.1-0.7-0.2-2.1-0.2-3.1C28.2,16.4,26.3,14.7,24.6,15.8z"/>
</g>
</svg>
