<?xml version="1.0" encoding="utf-8"?>
<!-- Generator: Adobe Illustrator 25.2.1, SVG Export Plug-In . SVG Version: 6.00 Build 0)  -->
<svg version="1.1" id="Layer_1" xmlns="http://www.w3.org/2000/svg" xmlns:xlink="http://www.w3.org/1999/xlink" x="0px" y="0px"
	 viewBox="0 0 66.8 66.8" style="enable-background:new 0 0 66.8 66.8;" xml:space="preserve">
<g>
	<path d="M23.7,3.5C14.2,4.6,6,12.1,4,21.5c-1.7,8.1,0.3,15.2,5.8,20.7c2.8,2.8,7,5.2,10.8,6.2c5,1.3,11.4,0.6,15.9-1.7
		c1.2-0.6,2.2-1,2.2-0.9c4.2,6.3,12.8,15.4,15.8,16.9c2.5,1.2,4.7,0.8,6.9-1.2c1.5-1.4,1.7-1.7,1.9-4.1c0.2-2.1,0-2.8-0.7-3.9
		c-1.3-2.1-14.1-13.9-15.6-14.4l-1.3-0.4l1.1-2.4c3.4-6.9,3.1-15.6-0.7-21.7C41.3,6.7,32.8,2.6,23.7,3.5z M32.4,11.2
		c2.3,1,5,3.4,6.6,5.7c3.1,4.6,3.8,11.4,1.5,15.9c-1.7,3.3-4.8,6.3-7.8,7.7c-2.3,1.1-3,1.2-6.5,1.2c-3.5,0-4.2-0.2-6.4-1.2
		c-3.1-1.5-6.3-4.7-7.9-7.9c-1.1-2.2-1.2-2.9-1.2-6.6c0-4.9,0.8-6.8,4-10.3c2.2-2.4,3.9-3.6,6.9-4.8C24.1,9.8,29.7,10,32.4,11.2z"/>
	<path d="M18.1,23.8c-1.3,0.5-1.9,1.5-1.8,2.8c0.2,2,1.3,2.2,10.4,2.1c8.1-0.1,8.2-0.1,9-1.1c1-1.3,1-1.9-0.2-3.1c-1-1-1-1-8.8-1
		C22.4,23.4,18.5,23.6,18.1,23.8z"/>
</g>
</svg>
